<?xml version="1.0" encoding="utf-8"?>
<!-- Generator: Adobe Illustrator 26.0.1, SVG Export Plug-In . SVG Version: 6.00 Build 0)  -->
<svg version="1.1" xmlns="http://www.w3.org/2000/svg" xmlns:xlink="http://www.w3.org/1999/xlink" x="0px" y="0px"
	 viewBox="0 0 425.2 226.77" style="enable-background:new 0 0 425.2 226.77;" xml:space="preserve">
<style type="text/css">
	.st0{fill:#F1E511;}
	.st1{fill:#6EC6D9;}
	.st2{clip-path:url(#SVGID_00000078766534972775386390000007957030948974866317_);}
	.st3{clip-path:url(#SVGID_00000173151969695247999420000011886630021264034703_);}
	.st4{clip-path:url(#SVGID_00000008114168057994562770000003520658727614288828_);}
	.st5{clip-path:url(#SVGID_00000113314597556124282080000011232769026883265676_);fill:#1D1F1C;}
	.st6{clip-path:url(#SVGID_00000026143463729644088030000007864235672934355632_);}
	.st7{clip-path:url(#SVGID_00000124122943438125282790000015397028204478492347_);}
	.st8{clip-path:url(#SVGID_00000002350608378317475700000002167846755907012795_);}
	.st9{clip-path:url(#SVGID_00000004527235181763433660000011338083773319292584_);fill:#1D1F1C;}
	.st10{clip-path:url(#SVGID_00000170973583104610524920000000920015744323447951_);}
	.st11{clip-path:url(#SVGID_00000011754282419722564490000007029754976769831320_);}
	.st12{clip-path:url(#SVGID_00000000935475825008577750000000309265657734503579_);}
	.st13{clip-path:url(#SVGID_00000048496330711127638020000006369895737136050575_);fill:#1D1F1C;}
	.st14{clip-path:url(#SVGID_00000017502825325677019720000012511721868033521029_);}
	.st15{clip-path:url(#SVGID_00000016759046696964211590000010724258595035888768_);}
	.st16{clip-path:url(#SVGID_00000045577172566471481580000012415387628102134433_);}
	.st17{clip-path:url(#SVGID_00000118366693583224191430000006585616997864484002_);fill:#1D1F1C;}
	.st18{fill:#1D1F1C;}
	.st19{fill:none;stroke:#1D1E1B;stroke-width:2;stroke-miterlimit:10;}
	.st20{fill:#E7372F;}
	.st21{fill:#1D1E1B;stroke:#1D1E1B;stroke-width:0.5;stroke-miterlimit:10;}
	.st22{fill:#010202;}
	.st23{clip-path:url(#SVGID_00000071533744375813914580000013938744112232264363_);}
	.st24{clip-path:url(#SVGID_00000104683497129921569390000011743240139483582903_);}
	.st25{clip-path:url(#SVGID_00000060032228425920996880000007871908210270849706_);}
	.st26{clip-path:url(#SVGID_00000106853507306541339060000012640961311122569365_);fill:#FFFFFF;}
	.st27{clip-path:url(#SVGID_00000116227661545059402480000004158042588443028119_);}
	.st28{clip-path:url(#SVGID_00000178197925962609118640000015902609992401290683_);}
	.st29{clip-path:url(#SVGID_00000018197925895289997480000016685239483524159112_);}
	.st30{clip-path:url(#SVGID_00000039824208016265998100000001158501424636198823_);fill:#FFFFFF;}
	.st31{clip-path:url(#SVGID_00000147185893534406565850000005252274134138047900_);}
	.st32{clip-path:url(#SVGID_00000136377579744085104750000006164771755256771250_);}
	.st33{clip-path:url(#SVGID_00000011027915272348373230000008786678899065494449_);}
	.st34{clip-path:url(#SVGID_00000177454331189842970560000013720425005081237667_);fill:#FFFFFF;}
	.st35{clip-path:url(#SVGID_00000031200306234371313940000003756017729793467789_);}
	.st36{clip-path:url(#SVGID_00000124857558229960862620000004673309231648847765_);}
	.st37{clip-path:url(#SVGID_00000092437634716585230400000012121809288845911431_);}
	.st38{clip-path:url(#SVGID_00000179609205296570921070000014692808737512224142_);fill:#FFFFFF;}
	.st39{fill:#FFFFFF;}
	.st40{fill:none;stroke:#FFFFFF;stroke-width:2;stroke-miterlimit:10;}
	.st41{fill:#FFFFFF;stroke:#FFFFFF;stroke-width:0.5;stroke-miterlimit:10;}
	.st42{clip-path:url(#SVGID_00000067944174673811052770000010453547438124555188_);}
	.st43{clip-path:url(#SVGID_00000137129405673794425850000011770047789267188150_);}
	.st44{clip-path:url(#SVGID_00000104683062627886950840000001116399650635139468_);}
	.st45{clip-path:url(#SVGID_00000007425193754811359170000008842968305872086929_);fill:#1D1F1C;}
	.st46{clip-path:url(#SVGID_00000152244128259523261210000004573324589033551035_);}
	.st47{clip-path:url(#SVGID_00000046318127157016706120000010107631240178324150_);}
	.st48{clip-path:url(#SVGID_00000108992701777467138420000009748441119208433818_);}
	.st49{clip-path:url(#SVGID_00000169557635528663865040000006950196429740320164_);fill:#1D1F1C;}
	.st50{clip-path:url(#SVGID_00000070076730338812440640000017502278597600620688_);}
	.st51{clip-path:url(#SVGID_00000168086065852096678190000001666311067863458474_);}
	.st52{clip-path:url(#SVGID_00000183249593480409107580000007036470923830045057_);}
	.st53{clip-path:url(#SVGID_00000135687380615376815960000012978932241023523989_);fill:#1D1F1C;}
	.st54{clip-path:url(#SVGID_00000052094473670815670850000005232071504863096496_);}
	.st55{clip-path:url(#SVGID_00000065773458755853351710000013951451873938290059_);}
	.st56{clip-path:url(#SVGID_00000023269226634579053540000014867829099385088941_);}
	.st57{clip-path:url(#SVGID_00000013906404263010255820000012851810824895472266_);fill:#1D1F1C;}
	.st58{clip-path:url(#SVGID_00000066503615075035991320000016142910078421749672_);}
	.st59{clip-path:url(#SVGID_00000036230155322542214120000012087579588851759494_);}
	.st60{clip-path:url(#SVGID_00000024714320956927076480000003596880174478038963_);}
	.st61{clip-path:url(#SVGID_00000136402226808093086760000006597989162385081481_);fill:#FFFFFF;}
	.st62{clip-path:url(#SVGID_00000004509488189866267310000001504560311021819293_);}
	.st63{clip-path:url(#SVGID_00000144332014994590458610000007498112921020334765_);}
	.st64{clip-path:url(#SVGID_00000165216333462326557360000010426845899220015793_);}
	.st65{clip-path:url(#SVGID_00000022528518826422219730000007757214283450097342_);fill:#FFFFFF;}
	.st66{clip-path:url(#SVGID_00000166672655850101446940000015540987976095876225_);}
	.st67{clip-path:url(#SVGID_00000131334126275780879010000015659167694602767778_);}
	.st68{clip-path:url(#SVGID_00000116919759440838911950000006728335791245741955_);}
	.st69{clip-path:url(#SVGID_00000062154493211101793980000006628638281361259140_);fill:#FFFFFF;}
	.st70{clip-path:url(#SVGID_00000120522952959457985190000015312931795101267085_);}
	.st71{clip-path:url(#SVGID_00000101788689098860122430000007779371536283068034_);}
	.st72{clip-path:url(#SVGID_00000136383325975278137240000012202439357562945689_);}
	.st73{clip-path:url(#SVGID_00000129164112328420872610000014260610423461727378_);fill:#FFFFFF;}
</style>
<g id="Pistolet_ongle_simple">
	<g>
		<g>
			<circle class="st0" cx="238.49" cy="173.88" r="17.38"/>
			<circle class="st1" cx="298.61" cy="173.88" r="17.38"/>
		</g>
		<g>
			<g>
				<defs>
					
						<rect id="SVGID_1_" x="96.19" y="79.09" transform="matrix(0.9998 -0.0188 0.0188 0.9998 -2.2014 2.3818)" width="59.17" height="78.73"/>
				</defs>
				<clipPath id="SVGID_00000026139754838383237900000003020237918295268506_">
					<use xlink:href="#SVGID_1_"  style="overflow:visible;"/>
				</clipPath>
				<g style="clip-path:url(#SVGID_00000026139754838383237900000003020237918295268506_);">
					<defs>
						
							<rect id="SVGID_00000147220874170077815120000000212089021383563706_" x="58.62" y="77.41" transform="matrix(0.6219 -0.7831 0.7831 0.6219 -61.8566 142.6019)" width="116.25" height="115.88"/>
					</defs>
					<clipPath id="SVGID_00000089553779888317865710000003698627610763629978_">
						<use xlink:href="#SVGID_00000147220874170077815120000000212089021383563706_"  style="overflow:visible;"/>
					</clipPath>
					<g style="clip-path:url(#SVGID_00000089553779888317865710000003698627610763629978_);">
						<defs>
							
								<rect id="SVGID_00000000910448241655019030000007358733800445269679_" x="58.62" y="77.41" transform="matrix(0.6219 -0.7831 0.7831 0.6219 -61.8566 142.6019)" width="116.25" height="115.88"/>
						</defs>
						<clipPath id="SVGID_00000052793322098034103660000006998525241330008707_">
							<use xlink:href="#SVGID_00000000910448241655019030000007358733800445269679_"  style="overflow:visible;"/>
						</clipPath>
						<g style="clip-path:url(#SVGID_00000052793322098034103660000006998525241330008707_);">
							<defs>
								
									<rect id="SVGID_00000097475201086103031310000015450504986007801516_" x="58.62" y="77.41" transform="matrix(0.6219 -0.7831 0.7831 0.6219 -61.8566 142.6019)" width="116.25" height="115.88"/>
							</defs>
							<clipPath id="SVGID_00000057129929216340310390000017723131147586063033_">
								<use xlink:href="#SVGID_00000097475201086103031310000015450504986007801516_"  style="overflow:visible;"/>
							</clipPath>
							<path style="clip-path:url(#SVGID_00000057129929216340310390000017723131147586063033_);fill:#1D1F1C;" d="M131.92,141.61
								c-4.77-0.19-8.5-4.22-8.32-8.99l1.71-44.29c0.05-1.41-0.44-2.75-1.4-3.79c-0.96-1.03-2.26-1.63-3.67-1.69
								c-2.9-0.11-5.36,2.16-5.47,5.06l-1.73,44.88c-0.04,0.93-0.82,1.66-1.76,1.62c-0.93-0.04-1.66-0.82-1.63-1.76l1.61-41.85
								c0.1-2.67-2.18-4.94-5.08-5.05c-2.9-0.11-5.35,1.97-5.46,4.64l-0.87,22.54c-0.04,0.93-0.82,1.66-1.76,1.62
								c-0.93-0.04-1.66-0.82-1.63-1.76l0.87-22.55c0.17-4.53,4.2-8.07,8.96-7.89c2.24,0.09,4.25,0.98,5.74,2.38
								c1.36-3.22,4.61-5.43,8.31-5.29c4.77,0.19,8.5,4.22,8.31,8.99l-0.82,21.34c1.55-1.1,3.41-1.66,5.34-1.59
								c2.31,0.09,4.45,1.08,6.02,2.77c1.17,1.27,1.92,2.81,2.19,4.48c1.53-1.15,3.45-1.8,5.51-1.72c2.31,0.09,4.45,1.07,6.02,2.77
								c1.57,1.7,2.39,3.9,2.3,6.22l-0.49,12.72c-0.07,1.86-0.72,3.61-1.86,5.03c-0.27,0.35-0.58,0.68-0.91,0.98
								c-0.14,0.13-0.27,0.24-0.42,0.36l-0.52,13.6c-0.02,0.37-0.15,0.71-0.37,0.99c-0.32,0.41-0.83,0.66-1.39,0.64
								c-0.93-0.04-1.66-0.82-1.63-1.76l0.45-11.76c-0.76,0.18-1.54,0.26-2.34,0.23c-2.31-0.09-4.45-1.07-6.02-2.77
								c-0.55-0.59-1-1.25-1.36-1.95C136.75,140.72,134.44,141.71,131.92,141.61z M151.38,135.34l0.49-12.72
								c0.05-1.41-0.44-2.75-1.4-3.79c-0.96-1.03-2.26-1.63-3.67-1.69c-1.74-0.07-3.32,0.72-4.33,2c-0.67,0.85-1.09,1.9-1.14,3.07
								l-0.49,12.73c-0.06,1.41,0.44,2.75,1.4,3.78c0.96,1.03,2.26,1.63,3.66,1.69c1.41,0.05,2.75-0.44,3.79-1.4
								C150.72,138.05,151.32,136.74,151.38,135.34z M132.05,138.23c2.9,0.11,5.36-2.16,5.47-5.06l0.62-16.09
								c0.05-1.41-0.44-2.75-1.4-3.79c-0.96-1.03-2.26-1.63-3.67-1.69c-1.41-0.06-2.75,0.44-3.78,1.4c-0.2,0.19-0.39,0.39-0.56,0.6
								c-0.69,0.87-1.09,1.93-1.13,3.06l-0.62,16.09C126.88,135.66,129.15,138.12,132.05,138.23z"/>
						</g>
					</g>
				</g>
			</g>
			<g>
				<defs>
					
						<rect id="SVGID_00000168835860467378128530000009365645582957335979_" x="141.64" y="153.58" transform="matrix(0.9998 -0.0188 0.0188 0.9998 -3.2255 2.7811)" width="9.78" height="39.26"/>
				</defs>
				<clipPath id="SVGID_00000171713425687660284730000016301396615739390357_">
					<use xlink:href="#SVGID_00000168835860467378128530000009365645582957335979_"  style="overflow:visible;"/>
				</clipPath>
				<g style="clip-path:url(#SVGID_00000171713425687660284730000016301396615739390357_);">
					<defs>
						<polygon id="SVGID_00000170962583987791241860000010680222454525625274_" points="107.43,27.03 35.43,134.27 126.43,219.68 
							198.43,112.43 						"/>
					</defs>
					<clipPath id="SVGID_00000080178712133824486120000009786684319195956919_">
						<use xlink:href="#SVGID_00000170962583987791241860000010680222454525625274_"  style="overflow:visible;"/>
					</clipPath>
					<g style="clip-path:url(#SVGID_00000080178712133824486120000009786684319195956919_);">
						<defs>
							<polygon id="SVGID_00000110465677381964319150000000908130606259627705_" points="107.43,27.03 35.43,134.27 126.43,219.68 
								198.43,112.43 							"/>
						</defs>
						<clipPath id="SVGID_00000017517701927703524250000012120817598963265414_">
							<use xlink:href="#SVGID_00000110465677381964319150000000908130606259627705_"  style="overflow:visible;"/>
						</clipPath>
						<g style="clip-path:url(#SVGID_00000017517701927703524250000012120817598963265414_);">
							<defs>
								<polygon id="SVGID_00000163030660278175243270000017847678203374221471_" points="107.43,27.03 35.43,134.27 126.43,219.68 
									198.43,112.43 								"/>
							</defs>
							<clipPath id="SVGID_00000165952514065105798090000012156344006911195553_">
								<use xlink:href="#SVGID_00000163030660278175243270000017847678203374221471_"  style="overflow:visible;"/>
							</clipPath>
							<path style="clip-path:url(#SVGID_00000165952514065105798090000012156344006911195553_);fill:#1D1F1C;" d="M142.1,190.52
								l0.36-12.24c0.04-1.46,0.39-2.91,0.99-4.19l0.28-0.58c2.37-4.98,3.72-10.64,3.89-16.37l0.05-1.62
								c0.03-1.1,0.82-1.96,1.75-1.91c0.93,0.05,1.66,0.98,1.63,2.08l-0.05,1.62c-0.19,6.36-1.68,12.65-4.32,18.18l-0.28,0.58
								c-0.34,0.72-0.54,1.55-0.56,2.38l-0.36,12.24c-0.01,0.44-0.14,0.84-0.36,1.16c-0.32,0.48-0.83,0.78-1.39,0.75
								C142.79,192.55,142.06,191.62,142.1,190.52z"/>
						</g>
					</g>
				</g>
			</g>
			<g>
				<defs>
					
						<rect id="SVGID_00000031207282131564054060000018446666762299205022_" x="89.16" y="163.12" transform="matrix(0.9998 -0.0188 0.0188 0.9998 -3.3251 1.8197)" width="12.22" height="29.83"/>
				</defs>
				<clipPath id="SVGID_00000057123361664647050910000013670364223329151898_">
					<use xlink:href="#SVGID_00000031207282131564054060000018446666762299205022_"  style="overflow:visible;"/>
				</clipPath>
				<g style="clip-path:url(#SVGID_00000057123361664647050910000013670364223329151898_);">
					<defs>
						
							<rect id="SVGID_00000046307601986804677080000014715309413929306271_" x="54.28" y="71.94" transform="matrix(0.6219 -0.7831 0.7831 0.6219 -59.2123 137.1351)" width="116.25" height="115.88"/>
					</defs>
					<clipPath id="SVGID_00000088130069677420182430000004291858026071537299_">
						<use xlink:href="#SVGID_00000046307601986804677080000014715309413929306271_"  style="overflow:visible;"/>
					</clipPath>
					<g style="clip-path:url(#SVGID_00000088130069677420182430000004291858026071537299_);">
						<defs>
							
								<rect id="SVGID_00000045611102786795384800000000203647882187482278_" x="54.28" y="71.94" transform="matrix(0.6219 -0.7831 0.7831 0.6219 -59.2123 137.1351)" width="116.25" height="115.88"/>
						</defs>
						<clipPath id="SVGID_00000023961657978283258780000002871020137827473547_">
							<use xlink:href="#SVGID_00000045611102786795384800000000203647882187482278_"  style="overflow:visible;"/>
						</clipPath>
						<g style="clip-path:url(#SVGID_00000023961657978283258780000002871020137827473547_);">
							<defs>
								
									<rect id="SVGID_00000098901802319946056650000008329531894960525716_" x="54.28" y="71.94" transform="matrix(0.6219 -0.7831 0.7831 0.6219 -59.2123 137.1351)" width="116.25" height="115.88"/>
							</defs>
							<clipPath id="SVGID_00000168796386806690071930000011372651457004942517_">
								<use xlink:href="#SVGID_00000098901802319946056650000008329531894960525716_"  style="overflow:visible;"/>
							</clipPath>
							<path style="clip-path:url(#SVGID_00000168796386806690071930000011372651457004942517_);fill:#1D1F1C;" d="M97.25,190.7
								l0.65-16.92l-0.03-0.04l-0.07-0.05c-2.95-2.17-5.7-4.65-8.19-7.38c-0.63-0.69-0.58-1.76,0.11-2.39
								c0.69-0.63,1.76-0.58,2.39,0.11c2.33,2.56,4.92,4.9,7.69,6.93l0.07,0.05c0.92,0.68,1.45,1.76,1.41,2.89l-0.65,16.92
								c-0.02,0.37-0.15,0.71-0.37,0.99c-0.32,0.41-0.83,0.66-1.39,0.64C97.95,192.42,97.22,191.63,97.25,190.7z"/>
						</g>
					</g>
				</g>
			</g>
			<g>
				<defs>
					
						<rect id="SVGID_00000127727533088314946900000018138299845186953403_" x="70.23" y="118.28" transform="matrix(0.9998 -0.0188 0.0188 0.9998 -2.6575 1.8391)" width="52.81" height="48.41"/>
				</defs>
				<clipPath id="SVGID_00000143601598534567021780000005975039710865529531_">
					<use xlink:href="#SVGID_00000127727533088314946900000018138299845186953403_"  style="overflow:visible;"/>
				</clipPath>
				<g style="clip-path:url(#SVGID_00000143601598534567021780000005975039710865529531_);">
					<defs>
						
							<rect id="SVGID_00000170265943902084415650000004105426086785366411_" x="58.62" y="77.41" transform="matrix(0.6219 -0.7831 0.7831 0.6219 -61.8566 142.6019)" width="116.25" height="115.88"/>
					</defs>
					<clipPath id="SVGID_00000127004583203340062170000013439403834525890723_">
						<use xlink:href="#SVGID_00000170265943902084415650000004105426086785366411_"  style="overflow:visible;"/>
					</clipPath>
					<g style="clip-path:url(#SVGID_00000127004583203340062170000013439403834525890723_);">
						<defs>
							
								<rect id="SVGID_00000176742688117316320670000007889732817987304093_" x="58.62" y="77.41" transform="matrix(0.6219 -0.7831 0.7831 0.6219 -61.8566 142.6019)" width="116.25" height="115.88"/>
						</defs>
						<clipPath id="SVGID_00000127026011417213856880000018345182454595322779_">
							<use xlink:href="#SVGID_00000176742688117316320670000007889732817987304093_"  style="overflow:visible;"/>
						</clipPath>
						<g style="clip-path:url(#SVGID_00000127026011417213856880000018345182454595322779_);">
							<defs>
								
									<rect id="SVGID_00000118355536284361723280000012866479683234613151_" x="58.62" y="77.41" transform="matrix(0.6219 -0.7831 0.7831 0.6219 -61.8566 142.6019)" width="116.25" height="115.88"/>
							</defs>
							<clipPath id="SVGID_00000072966846554845537300000007735760430853268384_">
								<use xlink:href="#SVGID_00000118355536284361723280000012866479683234613151_"  style="overflow:visible;"/>
							</clipPath>
							<path style="clip-path:url(#SVGID_00000072966846554845537300000007735760430853268384_);fill:#1D1F1C;" d="M91.68,166.39
								c-0.77,0.53-1.82,0.34-2.35-0.43c-1.01-1.45-1.94-2.94-2.77-4.43c-4.79-8.56-11.45-20.43-15.19-27.11
								c-2.04-3.65-1.03-8.27,2.34-10.75l0.12-0.09c3.29-2.42,7.88-2,10.69,0.97l10.45,11.07c0.22-0.01,0.43-0.01,0.65-0.01
								l0.6-15.58c0.04-0.93,0.82-1.66,1.76-1.62c0.93,0.04,1.66,0.82,1.63,1.76l-0.6,15.61c8.4,0.86,16.21,5.13,21.46,11.86
								l2.24,2.88c0.49,0.63,0.47,1.49-0.01,2.09c-0.08,0.1-0.18,0.2-0.29,0.28c-0.74,0.57-1.8,0.44-2.37-0.3l-2.25-2.88
								c-5.44-6.98-13.97-10.98-22.82-10.71c-0.9,0.03-1.77-0.33-2.39-0.99l-10.52-11.14c-1.63-1.73-4.31-1.97-6.22-0.56l-0.12,0.09
								c-2.01,1.47-2.61,4.21-1.4,6.37c3.74,6.68,10.4,18.55,15.19,27.11c0.78,1.39,1.66,2.79,2.6,4.16
								C92.64,164.8,92.45,165.86,91.68,166.39z"/>
						</g>
					</g>
				</g>
			</g>
			<path class="st18" d="M100.85,89.52l-1.83,47.42c-0.04,0.94-0.83,1.68-1.78,1.64c-0.94-0.04-1.68-0.83-1.64-1.78l1.83-47.42
				c0.04-0.94,0.83-1.68,1.78-1.64C100.15,87.78,100.89,88.57,100.85,89.52"/>
			
				<ellipse transform="matrix(0.0305 -0.9995 0.9995 0.0305 9.2482 274.5385)" class="st19" cx="146.14" cy="132.5" rx="4.56" ry="3.39"/>
			
				<ellipse transform="matrix(0.0305 -0.9995 0.9995 0.0305 -2.0069 258.6513)" class="st19" cx="132.32" cy="130.36" rx="4.56" ry="3.39"/>
			
				<ellipse transform="matrix(0.9813 -0.1923 0.1923 0.9813 -23.7554 17.1821)" class="st19" cx="76.65" cy="130.99" rx="3.11" ry="4.95"/>
		</g>
		<g>
			<path class="st20" d="M99.94,37.11c0.19-0.24,0.54-0.28,0.85-0.27c0.63,0.02,1.27,0.21,1.71,0.59c0.16,0.14,0.29,0.3,0.38,0.49
				c0.09,0.18,0.14,0.37,0.19,0.56c0.06,0.22,0.11,0.44,0.1,0.67C103.01,41.81,98.19,39.32,99.94,37.11"/>
			<g>
				<g>
					<path class="st20" d="M120.26,41.75c0.94-0.98,2.53-1.58,3.73-0.94c0.98,0.52,1.39,1.77,1.05,2.8s-1.29,1.82-2.37,2.16
						c-0.56,0.18-1.15,0.25-1.67,0.51c-0.52,0.26-0.97,0.78-0.87,1.33c0.2,1.07,1.99,1.01,2.61,1.91c0.69,1.01-0.33,2.83,0.8,3.38
						c0.85,0.42,1.95-0.55,2.81-0.15c0.66,0.3,0.68,1.26,0.22,1.8c-0.46,0.54-1.22,0.76-1.94,0.9c-0.38,0.07-0.79,0.15-1.03,0.43
						c-0.26,0.31-0.22,0.76-0.16,1.16c0.11,0.79,0.33,1.72,1.11,2.02c0.35,0.14,0.75,0.11,1.13,0.14c1.64,0.12,3.1,1.38,3.39,2.93
						c0.19,1.04-0.17,2.22-1.1,2.82c-0.92,0.6-2.39,0.37-2.86-0.58c-0.27-0.55-0.23-1.27-0.72-1.66c-0.61-0.49-1.62-0.05-1.99,0.63
						c-0.37,0.68-0.31,1.48-0.33,2.24c-0.02,0.76-0.19,1.61-0.83,2.07c-0.81,0.58-1.82,0.24-2.73,0.24
						c-1.72-0.01-0.93,2.58-2.98,2.95c-0.46,0.08-0.95,0.04-1.4,0.19c-1.26,0.43-1.44,2.05-1.24,3.3c0.2,1.25,0.5,2.72-0.43,3.64
						c-0.84,0.84-2.39,0.71-3.27-0.07c-0.88-0.79-1.15-2.03-1.01-3.18c0.09-0.77,0.34-1.53,0.25-2.3c-0.1-0.76-0.7-1.55-1.51-1.51
						c-2.32,0.1-1.02,3.91-5.83,3.39c-3.64-0.39-2.62-3.47-3.47-5.3c-0.59-1.28-2.1-0.97-3.26-1.37c-1.38-0.47-2.3-1.85-2.6-3.17
						c-0.35-1.54,1.04-2.49,2.22-3.33c1.81-1.3,2.03-2.45,0.2-3.67c-0.93-0.62-2.01-1.11-2.3-2.28c-0.23-0.92-0.21-2.19,0.2-3.08
						c0.62-1.33,1.84-2.39,3.28-2.87c1.76-0.58,2.58-2.2,0.99-3.66c-1.48-1.36-4.7-0.19-4.55-3.28c0.06-1.28,1.18-2.44,2.51-2.67
						c1.33-0.23,2.75,0.44,3.42,1.54c0.49,0.81,0.76,1.93,1.71,2.15c1.21,0.28,2.01-1.14,3.04-1.82c1.02-0.67,2.51-0.57,3.4,0.23
						c1.07,0.97,1.72,2.33,3.22,1.05c0.8-0.68,1.53-2.03,2.81-1.78c1.75,0.33,2.36,2.73,4.23,3.16
						C118.2,44.63,119.07,42.99,120.26,41.75"/>
				</g>
			</g>
			<g>
				<g>
					<path class="st20" d="M114.22,33.5c-0.27-0.03-0.55,0.06-0.82,0.14c-0.41,0.13-0.84,0.29-1.15,0.65
						c-1.69,1.96,0.21,5,2.24,3.97C116.31,37.34,116.11,33.68,114.22,33.5"/>
				</g>
			</g>
		</g>
		<g>
			<path class="st21" d="M215.71,86.9c0,0.59-0.2,1.17-0.59,1.76c-0.39,0.58-0.78,1-1.17,1.24c-0.44-0.44-1.12-0.98-2.05-1.61
				s-2.1-1.24-3.51-1.83c-1.42-0.58-3.09-1.1-5.01-1.54c-1.93-0.44-4.11-0.66-6.55-0.66c-9.76,0-14.64,3.12-14.64,9.37
				c0,1.46,0.28,2.71,0.84,3.73c0.56,1.02,1.37,1.89,2.42,2.6c1.05,0.71,2.33,1.31,3.84,1.79c1.51,0.49,3.2,0.9,5.05,1.24l8.71,1.61
				c5.17,0.98,9.01,2.54,11.53,4.68c2.51,2.15,3.77,5.12,3.77,8.93c0,2.1-0.41,4.04-1.24,5.82c-0.83,1.78-2.1,3.31-3.8,4.57
				c-1.71,1.27-3.86,2.27-6.44,3c-2.59,0.73-5.61,1.1-9.07,1.1c-2.68,0-5.13-0.2-7.36-0.58c-2.22-0.39-4.22-0.89-6-1.5
				c-1.78-0.61-3.33-1.25-4.65-1.94c-1.32-0.68-2.42-1.32-3.29-1.9l2.49-3.95c0.73,0.49,1.67,1.05,2.82,1.68s2.51,1.24,4.1,1.83
				c1.58,0.59,3.37,1.07,5.34,1.46c1.98,0.39,4.18,0.59,6.62,0.59c4.68,0,8.35-0.79,11.01-2.38c2.66-1.59,3.99-4.06,3.99-7.43
				c0-1.71-0.32-3.12-0.95-4.25c-0.63-1.12-1.5-2.02-2.6-2.71c-1.1-0.68-2.38-1.22-3.84-1.61c-1.46-0.39-3-0.73-4.61-1.02
				l-8.64-1.46c-2.15-0.34-4.15-0.86-6-1.57c-1.86-0.71-3.47-1.61-4.83-2.71c-1.37-1.1-2.45-2.42-3.26-3.95
				c-0.81-1.54-1.21-3.3-1.21-5.31c0-1.9,0.34-3.69,1.03-5.38c0.68-1.68,1.82-3.17,3.4-4.46c1.59-1.29,3.64-2.32,6.15-3.07
				c2.51-0.76,5.6-1.13,9.26-1.13c2.68,0,5.02,0.16,7.03,0.48c2,0.32,3.68,0.69,5.05,1.13c1.37,0.44,2.46,0.89,3.29,1.35
				c0.83,0.47,1.44,0.84,1.83,1.13c0.73,0.59,1.21,1.07,1.43,1.46C215.6,85.9,215.71,86.36,215.71,86.9z"/>
			<path class="st21" d="M230.27,116.54c0.54,3.76,2.1,6.66,4.69,8.71c2.58,2.05,6,3.07,10.25,3.07c2.49,0,4.6-0.35,6.33-1.06
				c1.73-0.71,3.06-1.33,3.99-1.87l2.12,3.51c-0.39,0.25-0.98,0.57-1.76,0.99c-0.78,0.41-1.73,0.82-2.85,1.21
				c-1.12,0.39-2.39,0.72-3.8,0.99c-1.42,0.27-2.98,0.4-4.68,0.4c-2.68,0-5.21-0.4-7.57-1.21c-2.37-0.81-4.44-1.99-6.22-3.55
				c-1.78-1.56-3.18-3.49-4.21-5.78c-1.03-2.29-1.54-4.95-1.54-7.98c0-2.93,0.49-5.6,1.46-8.01c0.97-2.42,2.34-4.49,4.1-6.22
				c1.76-1.73,3.84-3.07,6.26-4.03c2.42-0.95,5.06-1.43,7.94-1.43c2.44,0,4.57,0.28,6.4,0.84c1.83,0.56,3.35,1.35,4.57,2.38
				c1.22,1.02,2.14,2.23,2.75,3.62c0.61,1.39,0.91,2.89,0.91,4.5s-0.33,3.09-0.99,4.43c-0.66,1.34-1.78,2.51-3.37,3.51
				c-1.59,1-3.71,1.78-6.37,2.34c-2.66,0.56-6.01,0.84-10.06,0.84c-1.56,0-2.99-0.01-4.28-0.04
				C233.04,116.7,231.69,116.64,230.27,116.54z M230.13,112.73c1.32,0.1,2.6,0.16,3.84,0.18c1.24,0.02,2.55,0.04,3.92,0.04
				c3.32,0,6.05-0.21,8.2-0.62c2.15-0.41,3.84-0.96,5.09-1.65c1.24-0.68,2.11-1.49,2.6-2.42c0.49-0.93,0.73-1.9,0.73-2.93
				c0-1.37-0.28-2.51-0.84-3.44c-0.56-0.93-1.32-1.67-2.27-2.23c-0.95-0.56-2.02-0.96-3.22-1.21c-1.2-0.24-2.43-0.37-3.69-0.37
				c-2.29,0-4.32,0.4-6.07,1.21c-1.76,0.81-3.23,1.89-4.43,3.26c-1.2,1.37-2.12,2.93-2.78,4.68
				C230.53,109,230.17,110.83,230.13,112.73z"/>
			<path class="st21" d="M290.28,97.95c0,0.49-0.13,0.93-0.4,1.32c-0.27,0.39-0.53,0.71-0.77,0.95c-0.83-0.39-1.88-0.76-3.15-1.1
				c-1.27-0.34-2.76-0.51-4.46-0.51c-2,0-3.67,0.25-5.01,0.73c-1.34,0.49-2.43,1.21-3.26,2.16c-0.83,0.95-1.42,2.13-1.76,3.55
				c-0.34,1.42-0.51,3.03-0.51,4.83v21.59h-4.83v-23.86c0-4.24,1.27-7.53,3.8-9.84c2.54-2.32,6.24-3.48,11.12-3.48
				c2.64,0,4.83,0.29,6.59,0.88C289.4,95.75,290.28,96.68,290.28,97.95z"/>
			<path class="st21" d="M301.26,82.51c0,0.98-0.36,1.82-1.06,2.53c-0.71,0.71-1.55,1.06-2.52,1.06c-0.98,0-1.81-0.35-2.49-1.06
				c-0.68-0.71-1.03-1.55-1.03-2.53c0-0.97,0.34-1.8,1.03-2.49c0.68-0.68,1.51-1.03,2.49-1.03c0.97,0,1.82,0.34,2.52,1.03
				C300.9,80.7,301.26,81.53,301.26,82.51z M295.33,97.8c0-0.73,0.21-1.33,0.62-1.79c0.41-0.46,1.09-0.69,2.01-0.69
				c0.44,0,0.86,0.06,1.28,0.18c0.41,0.12,0.72,0.23,0.91,0.33v35.64h-4.83V97.8z"/>
			<path class="st21" d="M322.92,98.32c-2.73,0-4.95,0.34-6.66,1.02c-1.71,0.68-2.88,1.32-3.51,1.9c-0.34-0.24-0.65-0.58-0.91-1.02
				c-0.27-0.44-0.4-0.93-0.4-1.46c0-0.54,0.13-1,0.4-1.39c0.27-0.39,0.6-0.73,0.99-1.02c0.49-0.39,1.56-0.83,3.22-1.32
				c1.66-0.49,3.9-0.73,6.73-0.73c5.81,0,10.32,1.2,13.54,3.59c3.22,2.39,4.83,6.24,4.83,11.56v21.88c-1.42,0.24-3.45,0.5-6.11,0.77
				c-2.66,0.27-5.67,0.4-9.04,0.4c-3.9,0-7.04-0.34-9.4-1.03c-2.37-0.68-4.21-1.57-5.53-2.67c-1.32-1.1-2.2-2.33-2.64-3.7
				c-0.44-1.37-0.66-2.73-0.66-4.1c0-1.76,0.27-3.35,0.81-4.79c0.54-1.44,1.45-2.67,2.74-3.7c1.29-1.03,3.04-1.83,5.23-2.42
				c2.19-0.59,4.95-0.88,8.27-0.88c1.07,0,2.2,0.04,3.37,0.11c1.17,0.07,2.28,0.15,3.33,0.22c1.05,0.07,2,0.16,2.85,0.26
				c0.85,0.1,1.52,0.17,2.01,0.22v-0.44c0-2.24-0.38-4.1-1.13-5.56c-0.76-1.46-1.76-2.62-3-3.48c-1.24-0.85-2.67-1.44-4.28-1.76
				C326.36,98.47,324.68,98.32,322.92,98.32z M336.39,114.12c-0.44-0.1-1.6-0.29-3.48-0.59c-1.88-0.29-4.65-0.44-8.31-0.44
				c-1.81,0-3.44,0.12-4.9,0.37c-1.46,0.24-2.72,0.67-3.77,1.28c-1.05,0.61-1.85,1.43-2.42,2.45c-0.56,1.03-0.84,2.29-0.84,3.81
				c0,2.63,1.04,4.57,3.11,5.82c2.07,1.24,5.53,1.87,10.36,1.87c3.17,0,5.54-0.13,7.1-0.4c1.56-0.27,2.61-0.48,3.15-0.62V114.12z"/>
			<path class="st21" d="M350.58,80.02c0-0.73,0.21-1.33,0.62-1.79c0.41-0.46,1.09-0.69,2.01-0.69c0.44,0,0.87,0.06,1.28,0.18
				c0.41,0.12,0.72,0.23,0.92,0.33v53.42h-4.83V80.02z"/>
			<path class="st21" d="M214.02,144.17c0.73,0.54,1.22,1.04,1.46,1.5c0.24,0.47,0.37,0.92,0.37,1.35c0,0.68-0.26,1.33-0.77,1.94
				c-0.51,0.61-1.01,1.04-1.5,1.28c-0.49-0.59-1.21-1.2-2.16-1.83c-0.95-0.63-2.06-1.21-3.33-1.72c-1.27-0.51-2.68-0.94-4.25-1.28
				c-1.56-0.34-3.2-0.51-4.9-0.51c-2.88,0-5.57,0.51-8.09,1.54c-2.51,1.03-4.7,2.49-6.55,4.39c-1.85,1.9-3.32,4.22-4.39,6.95
				c-1.07,2.73-1.61,5.81-1.61,9.22c0,3.51,0.57,6.62,1.72,9.33s2.68,4.98,4.61,6.81c1.93,1.83,4.19,3.21,6.8,4.14
				c2.61,0.93,5.38,1.39,8.31,1.39c1.76,0,3.39-0.12,4.9-0.37c1.51-0.24,2.87-0.55,4.06-0.92c1.2-0.37,2.23-0.75,3.11-1.17
				c0.88-0.41,1.59-0.79,2.12-1.13l2.2,3.95c-0.59,0.39-1.34,0.83-2.27,1.32c-0.93,0.49-2.06,0.95-3.4,1.39
				c-1.34,0.44-2.93,0.81-4.76,1.1c-1.83,0.29-3.92,0.44-6.26,0.44c-3.56,0-6.94-0.59-10.13-1.76c-3.2-1.17-6.01-2.88-8.45-5.12
				c-2.44-2.24-4.38-4.99-5.82-8.23c-1.44-3.24-2.16-6.94-2.16-11.09c0-4.15,0.71-7.87,2.12-11.16c1.41-3.29,3.32-6.09,5.71-8.38
				s5.18-4.05,8.38-5.27c3.2-1.22,6.55-1.83,10.06-1.83c3.61,0,6.71,0.41,9.29,1.24C211.05,142.52,212.9,143.34,214.02,144.17z"/>
			<path class="st21" d="M258.16,173.88c0,2.64-0.49,5.11-1.46,7.43c-0.98,2.32-2.33,4.34-4.06,6.07c-1.73,1.73-3.79,3.1-6.18,4.1
				c-2.39,1-5,1.5-7.83,1.5c-2.83,0-5.44-0.5-7.83-1.5c-2.39-1-4.45-2.37-6.18-4.1c-1.73-1.73-3.09-3.76-4.06-6.07
				c-0.98-2.32-1.46-4.79-1.46-7.43c0-2.68,0.49-5.18,1.46-7.5c0.98-2.32,2.33-4.34,4.06-6.07c1.73-1.73,3.79-3.09,6.18-4.06
				c2.39-0.98,5-1.46,7.83-1.46c2.83,0,5.44,0.49,7.83,1.46c2.39,0.98,4.45,2.33,6.18,4.06c1.73,1.73,3.09,3.76,4.06,6.07
				C257.67,168.7,258.16,171.2,258.16,173.88z M252.96,173.88c0-2.1-0.34-4.06-1.02-5.89c-0.68-1.83-1.66-3.43-2.93-4.79
				c-1.27-1.37-2.78-2.43-4.54-3.18c-1.76-0.76-3.71-1.13-5.86-1.13c-2.15,0-4.1,0.38-5.85,1.13c-1.76,0.76-3.27,1.82-4.54,3.18
				c-1.27,1.37-2.25,2.96-2.93,4.79c-0.68,1.83-1.03,3.79-1.03,5.89c0,2.05,0.35,3.99,1.06,5.82c0.71,1.83,1.68,3.41,2.93,4.76
				c1.24,1.34,2.74,2.4,4.5,3.18c1.76,0.78,3.71,1.17,5.85,1.17c2.15,0,4.1-0.39,5.86-1.17c1.76-0.78,3.27-1.84,4.54-3.18
				c1.27-1.34,2.24-2.93,2.93-4.76C252.62,177.87,252.96,175.93,252.96,173.88z"/>
			<path class="st21" d="M266.13,130.47c0-0.87,0.21-1.59,0.62-2.14c0.41-0.55,1.09-0.83,2.01-0.83c0.44,0,0.87,0.07,1.28,0.22
				c0.41,0.15,0.72,0.28,0.92,0.39v63.85h-4.83V130.47z"/>
			<path class="st21" d="M318.02,173.88c0,2.64-0.49,5.11-1.46,7.43c-0.98,2.32-2.33,4.34-4.06,6.07c-1.73,1.73-3.79,3.1-6.18,4.1
				c-2.39,1-5,1.5-7.83,1.5c-2.83,0-5.44-0.5-7.83-1.5c-2.39-1-4.45-2.37-6.18-4.1c-1.73-1.73-3.09-3.76-4.06-6.07
				c-0.98-2.32-1.46-4.79-1.46-7.43c0-2.68,0.49-5.18,1.46-7.5c0.97-2.32,2.33-4.34,4.06-6.07c1.73-1.73,3.79-3.09,6.18-4.06
				c2.39-0.98,5-1.46,7.83-1.46c2.83,0,5.44,0.49,7.83,1.46c2.39,0.98,4.45,2.33,6.18,4.06c1.73,1.73,3.08,3.76,4.06,6.07
				C317.53,168.7,318.02,171.2,318.02,173.88z M312.82,173.88c0-2.1-0.34-4.06-1.03-5.89c-0.68-1.83-1.66-3.43-2.93-4.79
				c-1.27-1.37-2.78-2.43-4.54-3.18c-1.76-0.76-3.71-1.13-5.85-1.13c-2.15,0-4.1,0.38-5.86,1.13c-1.76,0.76-3.27,1.82-4.54,3.18
				c-1.27,1.37-2.25,2.96-2.93,4.79c-0.68,1.83-1.02,3.79-1.02,5.89c0,2.05,0.35,3.99,1.06,5.82c0.71,1.83,1.68,3.41,2.93,4.76
				c1.25,1.34,2.75,2.4,4.5,3.18c1.76,0.78,3.71,1.17,5.86,1.17c2.15,0,4.1-0.39,5.85-1.17c1.76-0.78,3.27-1.84,4.54-3.18
				c1.27-1.34,2.24-2.93,2.93-4.76C312.48,177.87,312.82,175.93,312.82,173.88z"/>
			<path class="st21" d="M349.78,158.44c0,0.49-0.13,0.93-0.4,1.32c-0.27,0.39-0.53,0.71-0.77,0.95c-0.83-0.39-1.88-0.76-3.15-1.1
				c-1.27-0.34-2.76-0.51-4.46-0.51c-2,0-3.67,0.24-5.01,0.73c-1.34,0.49-2.43,1.21-3.26,2.16c-0.83,0.95-1.42,2.14-1.76,3.55
				c-0.34,1.42-0.51,3.03-0.51,4.83v21.59h-4.83V168.1c0-4.24,1.27-7.53,3.8-9.84c2.54-2.32,6.24-3.48,11.12-3.48
				c2.64,0,4.83,0.29,6.58,0.88C348.9,156.25,349.78,157.18,349.78,158.44z"/>
		</g>
	</g>
</g>
<g id="Pistolet_Texte_Blc">
</g>
<g id="Version_Noir">
</g>
<g id="Version_Blanche">
</g>
</svg>
